<?xml version="1.0" encoding="UTF-8"?>
<svg xmlns="http://www.w3.org/2000/svg" xmlns:xlink="http://www.w3.org/1999/xlink" width="600px" height="600px" viewBox="0 0 600 600" version="1.1">
<g id="surface1">
<path style=" stroke:none;fill-rule:nonzero;fill:rgb(14.901961%,13.72549%,30.196078%);fill-opacity:1;" d="M 1.875 133.3125 C 9.660156 99.195312 40.007812 74.996094 75 75 L 525 75 C 559.992188 74.996094 590.339844 99.195312 598.125 133.3125 L 300 315.523438 Z M 0 176.136719 L 0 442.539062 L 217.613281 309.113281 Z M 253.539062 331.125 L 7.164062 482.136719 C 19.585938 508.335938 46.003906 525.027344 75 525 L 525 525 C 553.992188 525.007812 580.390625 508.300781 592.800781 482.101562 L 346.425781 331.085938 L 300 359.476562 L 253.539062 331.085938 Z M 382.386719 309.148438 L 600 442.539062 L 600 176.136719 L 382.386719 309.113281 Z M 382.386719 309.148438 "/>
</g>
</svg>
