<?xml version="1.0" encoding="UTF-8"?>
<svg xmlns="http://www.w3.org/2000/svg" xmlns:xlink="http://www.w3.org/1999/xlink" width="600px" height="600px" viewBox="0 0 600 600" version="1.1">
<g id="surface1">
<path style=" stroke:none;fill-rule:nonzero;fill:rgb(14.901961%,13.72549%,30.196078%);fill-opacity:1;" d="M 300 0 C 134.25 0 0 134.25 0 300 C 0 432.75 85.875 544.875 205.125 584.625 C 220.125 587.25 225.75 578.25 225.75 570.375 C 225.75 563.25 225.375 539.625 225.375 514.5 C 150 528.375 130.5 496.125 124.5 479.25 C 121.125 470.625 106.5 444 93.75 436.875 C 83.25 431.25 68.25 417.375 93.375 417 C 117 416.625 133.875 438.75 139.5 447.75 C 166.5 493.125 209.625 480.375 226.875 472.5 C 229.5 453 237.375 439.875 246 432.375 C 179.25 424.875 109.5 399 109.5 284.25 C 109.5 251.625 121.125 224.625 140.25 203.625 C 137.25 196.125 126.75 165.375 143.25 124.125 C 143.25 124.125 168.375 116.25 225.75 154.875 C 249.75 148.125 275.25 144.75 300.75 144.75 C 326.25 144.75 351.75 148.125 375.75 154.875 C 433.125 115.875 458.25 124.125 458.25 124.125 C 474.75 165.375 464.25 196.125 461.25 203.625 C 480.375 224.625 492 251.25 492 284.25 C 492 399.375 421.875 424.875 355.125 432.375 C 366 441.75 375.375 459.75 375.375 487.875 C 375.375 528 375 560.25 375 570.375 C 375 578.25 380.625 587.625 395.625 584.625 C 517.75 543.410156 599.980469 428.890625 600 300 C 600 134.25 465.75 0 300 0 Z M 300 0 "/>
</g>
</svg>
