<?xml version="1.0" encoding="UTF-8"?>
<svg xmlns="http://www.w3.org/2000/svg" xmlns:xlink="http://www.w3.org/1999/xlink" width="600px" height="600px" viewBox="0 0 600 600" version="1.1">
<g id="surface1">
<path style=" stroke:none;fill-rule:nonzero;fill:rgb(14.901961%,13.72549%,30.196078%);fill-opacity:1;" d="M 176.8125 245.324219 L 125.363281 296.773438 C 81.425781 340.710938 81.425781 411.949219 125.363281 455.886719 C 169.300781 499.824219 240.539062 499.824219 284.476562 455.886719 L 353.023438 387.300781 C 378.84375 361.476562 390.523438 324.730469 384.351562 288.738281 C 378.179688 252.75 354.921875 221.992188 321.976562 206.25 L 300 228.226562 C 297.769531 230.460938 295.828125 232.96875 294.226562 235.6875 C 319.75 243.023438 339.488281 263.316406 346.125 289.03125 C 352.761719 314.746094 345.300781 342.054688 326.511719 360.824219 L 258 429.375 C 228.695312 458.679688 181.179688 458.679688 151.875 429.375 C 122.570312 400.070312 122.570312 352.554688 151.875 323.25 L 181.613281 293.550781 C 177.417969 277.828125 175.796875 261.527344 176.8125 245.289062 Z M 176.8125 245.324219 "/>
<path style=" stroke:none;fill-rule:nonzero;fill:rgb(14.901961%,13.72549%,30.196078%);fill-opacity:1;" d="M 246.976562 175.199219 C 221.15625 201.023438 209.476562 237.769531 215.648438 273.761719 C 221.820312 309.75 245.078125 340.507812 278.023438 356.25 L 307.085938 327.148438 C 281.210938 320.207031 261 299.992188 254.070312 274.109375 C 247.140625 248.230469 254.542969 220.617188 273.488281 201.675781 L 342 133.125 C 371.304688 103.820312 418.820312 103.820312 448.125 133.125 C 477.429688 162.429688 477.429688 209.945312 448.125 239.25 L 418.386719 268.949219 C 422.585938 284.699219 424.199219 301.011719 423.1875 317.210938 L 474.636719 265.761719 C 518.574219 221.824219 518.574219 150.585938 474.636719 106.648438 C 430.699219 62.710938 359.460938 62.710938 315.523438 106.648438 Z M 246.976562 175.199219 "/>
</g>
</svg>
