<?xml version="1.0" encoding="UTF-8"?>
<svg xmlns="http://www.w3.org/2000/svg" xmlns:xlink="http://www.w3.org/1999/xlink" width="600px" height="600px" viewBox="0 0 600 600" version="1.1">
<g id="surface1">
<path style=" stroke:none;fill-rule:evenodd;fill:rgb(14.901961%,13.72549%,30.196078%);fill-opacity:1;" d="M 70.6875 19.164062 C 83.960938 5.910156 102.28125 -1.011719 121.003906 0.160156 C 139.722656 1.328125 157.042969 10.472656 168.5625 25.273438 L 235.875 111.75 C 248.210938 127.613281 252.5625 148.273438 247.6875 167.773438 L 227.175781 249.898438 C 225.019531 258.550781 227.550781 267.703125 233.851562 274.011719 L 325.988281 366.148438 C 332.304688 372.460938 341.472656 374.996094 350.136719 372.824219 L 432.226562 352.3125 C 451.722656 347.4375 472.378906 351.792969 488.25 364.125 L 574.726562 431.398438 C 605.8125 455.585938 608.664062 501.523438 580.835938 529.3125 L 542.0625 568.085938 C 514.3125 595.835938 472.835938 608.023438 434.175781 594.414062 C 335.21875 559.59375 245.371094 502.945312 171.300781 428.664062 C 97.023438 354.601562 40.371094 264.765625 5.550781 165.824219 C -8.023438 127.199219 4.164062 85.6875 31.914062 57.9375 Z M 70.6875 19.164062 "/>
</g>
</svg>
