<?xml version="1.0" encoding="UTF-8"?>
<svg xmlns="http://www.w3.org/2000/svg" xmlns:xlink="http://www.w3.org/1999/xlink" width="600px" height="600px" viewBox="0 0 600 600" version="1.1">
<g id="surface1">
<path style=" stroke:none;fill-rule:nonzero;fill:rgb(14.901961%,13.72549%,30.196078%);fill-opacity:1;" d="M 188.476562 562.5 C 414.898438 562.5 538.761719 374.886719 538.761719 212.476562 C 538.761719 207.226562 538.761719 201.898438 538.539062 196.648438 C 562.652344 179.191406 583.464844 157.582031 600 132.824219 C 577.472656 142.757812 553.605469 149.300781 529.164062 152.25 C 554.90625 136.863281 574.191406 112.648438 583.425781 84.113281 C 559.238281 98.441406 532.761719 108.5 505.164062 113.851562 C 467.011719 73.222656 406.339844 63.253906 357.199219 89.546875 C 308.058594 115.839844 282.683594 171.84375 295.3125 226.125 C 196.324219 221.160156 104.09375 174.425781 41.550781 97.539062 C 8.96875 153.8125 25.671875 225.714844 79.726562 261.863281 C 60.207031 261.199219 41.121094 255.957031 24 246.5625 L 24 248.25 C 24.070312 306.808594 65.316406 357.242188 122.699219 368.925781 C 112.136719 371.835938 101.222656 373.285156 90.261719 373.238281 C 82.535156 373.261719 74.828125 372.546875 67.238281 371.101562 C 83.367188 421.230469 129.597656 455.554688 182.25 456.488281 C 138.621094 490.753906 84.726562 509.339844 29.25 509.25 C 19.472656 509.292969 9.707031 508.726562 0 507.5625 C 56.308594 543.460938 121.699219 562.519531 188.476562 562.5 Z M 188.476562 562.5 "/>
</g>
</svg>
